<svg width="24" height="24" viewBox="0 0 24 24" fill="none" xmlns="http://www.w3.org/2000/svg">
<path d="M15.375 21.75C15.4745 21.75 15.5698 21.7105 15.6402 21.6402C15.7105 21.5698 15.75 21.4745 15.75 21.375C15.75 21.2755 15.7105 21.1802 15.6402 21.1098C15.5698 21.0395 15.4745 21 15.375 21H12.375C12.2755 21 12.1802 21.0395 12.1098 21.1098C12.0395 21.1802 12 21.2755 12 21.375C12 21.4745 12.0395 21.5698 12.1098 21.6402C12.1802 21.7105 12.2755 21.75 12.375 21.75H15.375Z" fill="#BAC0E2"/>
<path d="M1.125 21.75H4.125C4.22446 21.75 4.31984 21.7105 4.39016 21.6402C4.46049 21.5698 4.5 21.4745 4.5 21.375C4.5 21.2755 4.46049 21.1802 4.39016 21.1098C4.31984 21.0395 4.22446 21 4.125 21H1.125C1.02554 21 0.930161 21.0395 0.859835 21.1098C0.789509 21.1802 0.75 21.2755 0.75 21.375C0.75 21.4745 0.789509 21.5698 0.859835 21.6402C0.930161 21.7105 1.02554 21.75 1.125 21.75Z" fill="#BAC0E2"/>
<path d="M10.5 22.5C10.4005 22.5 10.3052 22.5395 10.2348 22.6098C10.1645 22.6802 10.125 22.7755 10.125 22.875C10.125 22.9745 10.1645 23.0698 10.2348 23.1402C10.3052 23.2105 10.4005 23.25 10.5 23.25H12C12.0995 23.25 12.1948 23.2105 12.2652 23.1402C12.3355 23.0698 12.375 22.9745 12.375 22.875C12.375 22.7755 12.3355 22.6802 12.2652 22.6098C12.1948 22.5395 12.0995 22.5 12 22.5H10.5Z" fill="#BAC0E2"/>
<path d="M2.625 22.875C2.625 22.9745 2.66451 23.0698 2.73484 23.1402C2.80516 23.2105 2.90054 23.25 3 23.25H8.25C8.34946 23.25 8.44484 23.2105 8.51517 23.1402C8.58549 23.0698 8.625 22.9745 8.625 22.875C8.625 22.7755 8.58549 22.6802 8.51517 22.6098C8.44484 22.5395 8.34946 22.5 8.25 22.5H3C2.90054 22.5 2.80516 22.5395 2.73484 22.6098C2.66451 22.6802 2.625 22.7755 2.625 22.875Z" fill="#BAC0E2"/>
<path d="M22.164 9.47892C21.5463 9.17006 20.7334 9 19.875 9C19.6192 8.99987 19.3637 9.01537 19.1099 9.04641L21.2652 6.89105C21.3355 6.82072 21.375 6.72535 21.375 6.6259C21.375 6.52645 21.3355 6.43107 21.2652 6.36075C20.8761 5.97169 20.2529 5.89388 19.5101 6.14147C18.855 6.35986 18.1601 6.81441 17.5529 7.42139C17.447 7.52723 17.3461 7.63561 17.25 7.74652V4.875C17.25 4.77554 17.2105 4.68016 17.1402 4.60984C17.0698 4.53951 16.9745 4.5 16.875 4.5C16.3249 4.5 15.8291 4.88569 15.4789 5.58595C15.1701 6.20367 15 7.01658 15 7.875C14.9986 8.29582 15.0413 8.71562 15.1274 9.12755C14.7155 9.04162 14.2958 8.99887 13.875 9C13.0166 9 12.2037 9.17006 11.586 9.47892C10.8857 9.82908 10.5 10.3249 10.5 10.875C10.5 10.9745 10.5395 11.0698 10.6098 11.1402C10.6802 11.2105 10.7755 11.25 10.875 11.25H13.4782C12.6785 12.3906 12.5102 13.5396 13.1108 14.1402C13.1811 14.2105 13.2765 14.25 13.3759 14.25C13.4753 14.25 13.5707 14.2105 13.641 14.1402L15.5519 12.2294C15.6394 12.367 15.7558 12.484 15.8931 12.5721C16.0304 12.6602 16.1853 12.7173 16.3469 12.7395C16.5085 12.7617 16.673 12.7485 16.829 12.7006C16.9849 12.6528 17.1286 12.5716 17.25 12.4626C17.2669 12.4777 17.2843 12.4922 17.302 12.5063C17.7417 13.6005 17.9914 14.8479 18.0308 16.1386C17.115 16.2075 16.233 16.5498 15.4614 17.1402C15.4146 17.1761 15.3683 17.2132 15.3224 17.2507C13.2158 17.2648 11.3192 18.119 10.3052 19.5H1.125V20.25H16.875C18.3774 20.25 19.5 20.844 19.5 21.375C19.5 21.906 18.3774 22.5 16.875 22.5C16.7755 22.5 16.6802 22.5395 16.6098 22.6098C16.5395 22.6802 16.5 22.7755 16.5 22.875C16.5 22.9745 16.5395 23.0698 16.6098 23.1402C16.6802 23.2105 16.7755 23.25 16.875 23.25C17.7334 23.25 18.5463 23.0799 19.164 22.7711C19.8643 22.4209 20.25 21.9251 20.25 21.375C20.25 20.9546 20.0241 20.5662 19.6054 20.25H22.875C22.9365 20.25 22.997 20.2349 23.0513 20.206C23.1056 20.1771 23.1519 20.1352 23.1862 20.0842C23.2205 20.0332 23.2417 19.9745 23.248 19.9133C23.2543 19.8522 23.2455 19.7904 23.2222 19.7334C22.7907 18.6748 22.122 17.778 21.2886 17.1402C20.9521 16.8818 20.5844 16.6667 20.1943 16.5H20.25C20.25 14.6165 19.8744 12.8151 19.1602 11.25H22.875C22.9745 11.25 23.0698 11.2105 23.1402 11.1402C23.2105 11.0698 23.25 10.9745 23.25 10.875C23.25 10.3249 22.8643 9.82908 22.164 9.47892ZM16.5 5.42517V8.84653C16.3899 9.06038 16.3002 9.2842 16.2323 9.51497C16.2096 9.50292 16.1875 9.49064 16.164 9.47892C16.1025 9.44812 16.0385 9.41916 15.9732 9.39117C15.8215 8.90021 15.7463 8.38884 15.75 7.875C15.75 6.72445 16.0983 5.79661 16.5 5.42517ZM15.424 11.2965L13.4985 13.2221C13.4769 12.7475 13.7802 11.9986 14.4306 11.25H15.4395C15.4341 11.2654 15.4288 11.2808 15.424 11.2965ZM11.4252 10.5C11.7966 10.0983 12.7245 9.75 13.875 9.75C15.0255 9.75 15.9534 10.0983 16.3248 10.5H11.4252ZM16.5 12C16.4258 12 16.3533 11.978 16.2917 11.9368C16.23 11.8956 16.1819 11.837 16.1535 11.7685C16.1252 11.7 16.1177 11.6246 16.1322 11.5518C16.1467 11.4791 16.1824 11.4123 16.2348 11.3598C16.2873 11.3074 16.3541 11.2717 16.4268 11.2572C16.4996 11.2427 16.575 11.2502 16.6435 11.2785C16.712 11.3069 16.7706 11.355 16.8118 11.4167C16.853 11.4783 16.875 11.5508 16.875 11.625C16.8749 11.7244 16.8353 11.8197 16.765 11.89C16.6947 11.9603 16.5994 11.9999 16.5 12ZM16.8984 9.96712C16.9868 9.36938 17.4347 8.59997 18.083 7.95173C18.8966 7.13808 19.7983 6.72792 20.3456 6.74977L17.6446 9.45094C17.6251 9.46031 17.6052 9.46931 17.586 9.47906C17.3307 9.60154 17.0982 9.76658 16.8984 9.96712ZM18 12C17.9258 12 17.8533 11.978 17.7917 11.9368C17.73 11.8956 17.6819 11.837 17.6535 11.7685C17.6252 11.7 17.6177 11.6246 17.6322 11.5518C17.6467 11.4791 17.6824 11.4123 17.7348 11.3598C17.7873 11.3074 17.8541 11.2717 17.9268 11.2572C17.9996 11.2427 18.075 11.2502 18.1435 11.2785C18.212 11.3069 18.2706 11.355 18.3118 11.4167C18.353 11.4783 18.375 11.5508 18.375 11.625C18.3749 11.7244 18.3353 11.8197 18.265 11.89C18.1947 11.9603 18.0994 11.9999 18 12ZM13.6285 19.5H11.2964C12.0713 18.7379 13.2337 18.2159 14.5211 18.0538C14.1612 18.4945 13.8611 18.9808 13.6285 19.5ZM20.8328 17.7358C21.4412 18.2105 21.9381 18.8126 22.2887 19.5H14.4613C14.8119 18.8126 15.3088 18.2105 15.9172 17.7358C16.6531 17.1727 17.5031 16.875 18.375 16.875C19.2469 16.875 20.0969 17.1727 20.8328 17.7358ZM19.4969 16.2646C19.2619 16.2054 19.0227 16.1649 18.7814 16.1434C18.7533 14.9838 18.5527 13.8348 18.1861 12.7343C18.4271 12.6938 18.6483 12.5759 18.8162 12.3983C19.2506 13.6418 19.4804 14.9475 19.4967 16.2646H19.4969ZM17.4252 10.5C17.7966 10.0983 18.7245 9.75 19.875 9.75C21.0255 9.75 21.9534 10.0983 22.3248 10.5H17.4252Z" fill="#BAC0E2"/>
<path d="M10.125 21H6.375C6.27554 21 6.18016 21.0395 6.10983 21.1098C6.03951 21.1802 6 21.2755 6 21.375C6 21.4745 6.03951 21.5698 6.10983 21.6402C6.18016 21.7105 6.27554 21.75 6.375 21.75H10.125C10.2245 21.75 10.3198 21.7105 10.3902 21.6402C10.4605 21.5698 10.5 21.4745 10.5 21.375C10.5 21.2755 10.4605 21.1802 10.3902 21.1098C10.3198 21.0395 10.2245 21 10.125 21Z" fill="#BAC0E2"/>
<path d="M6.75 3C6.37916 3 6.01665 3.10997 5.70831 3.31599C5.39996 3.52202 5.15964 3.81486 5.01773 4.15747C4.87581 4.50008 4.83868 4.87708 4.91103 5.24079C4.98338 5.60451 5.16195 5.9386 5.42418 6.20082C5.6864 6.46304 6.02049 6.64162 6.3842 6.71397C6.74792 6.78631 7.12492 6.74918 7.46753 6.60727C7.81014 6.46536 8.10298 6.22503 8.309 5.91669C8.51503 5.60835 8.625 5.24584 8.625 4.875C8.62444 4.37789 8.42671 3.9013 8.07521 3.54979C7.7237 3.19828 7.24711 3.00056 6.75 3ZM6.75 6C6.5275 6 6.30999 5.93402 6.12498 5.8104C5.93998 5.68678 5.79578 5.51108 5.71064 5.30552C5.62549 5.09995 5.60321 4.87375 5.64662 4.65552C5.69002 4.43729 5.79717 4.23684 5.9545 4.0795C6.11184 3.92217 6.31229 3.81502 6.53052 3.77162C6.74875 3.72821 6.97495 3.75049 7.18052 3.83563C7.38608 3.92078 7.56178 4.06498 7.6854 4.24998C7.80902 4.43499 7.875 4.65249 7.875 4.875C7.87465 5.17326 7.75601 5.45921 7.54511 5.67011C7.33421 5.88101 7.04826 5.99965 6.75 6Z" fill="#BAC0E2"/>
<path d="M7.125 1.875V1.125C7.125 1.02554 7.08549 0.930161 7.01517 0.859835C6.94484 0.789509 6.84946 0.75 6.75 0.75C6.65054 0.75 6.55516 0.789509 6.48483 0.859835C6.41451 0.930161 6.375 1.02554 6.375 1.125V1.875C6.375 1.97446 6.41451 2.06984 6.48483 2.14016C6.55516 2.21049 6.65054 2.25 6.75 2.25C6.84946 2.25 6.94484 2.21049 7.01517 2.14016C7.08549 2.06984 7.125 1.97446 7.125 1.875Z" fill="#BAC0E2"/>
<path d="M10.875 4.875C10.875 4.77554 10.8355 4.68016 10.7652 4.60984C10.6948 4.53951 10.5995 4.5 10.5 4.5H9.75C9.65054 4.5 9.55516 4.53951 9.48483 4.60984C9.41451 4.68016 9.375 4.77554 9.375 4.875C9.375 4.97446 9.41451 5.06984 9.48483 5.14016C9.55516 5.21049 9.65054 5.25 9.75 5.25H10.5C10.5995 5.25 10.6948 5.21049 10.7652 5.14016C10.8355 5.06984 10.875 4.97446 10.875 4.875Z" fill="#BAC0E2"/>
<path d="M7.125 8.625V7.875C7.125 7.77554 7.08549 7.68016 7.01517 7.60983C6.94484 7.53951 6.84946 7.5 6.75 7.5C6.65054 7.5 6.55516 7.53951 6.48483 7.60983C6.41451 7.68016 6.375 7.77554 6.375 7.875V8.625C6.375 8.72446 6.41451 8.81984 6.48483 8.89017C6.55516 8.96049 6.65054 9 6.75 9C6.84946 9 6.94484 8.96049 7.01517 8.89017C7.08549 8.81984 7.125 8.72446 7.125 8.625Z" fill="#BAC0E2"/>
<path d="M2.625 4.875C2.625 4.97446 2.66451 5.06984 2.73484 5.14016C2.80516 5.21049 2.90054 5.25 3 5.25H3.75C3.84946 5.25 3.94484 5.21049 4.01516 5.14016C4.08549 5.06984 4.125 4.97446 4.125 4.875C4.125 4.77554 4.08549 4.68016 4.01516 4.60984C3.94484 4.53951 3.84946 4.5 3.75 4.5H3C2.90054 4.5 2.80516 4.53951 2.73484 4.60984C2.66451 4.68016 2.625 4.77554 2.625 4.875Z" fill="#BAC0E2"/>
<path d="M4.89375 2.48849L4.3635 1.95819C4.29291 1.88917 4.19795 1.85076 4.09922 1.85132C4.00049 1.85187 3.90597 1.89133 3.83615 1.96115C3.76634 2.03096 3.72688 2.12548 3.72632 2.22421C3.72577 2.32294 3.76418 2.4179 3.8332 2.48849L4.3635 3.01874C4.39809 3.05456 4.43947 3.08312 4.48522 3.10278C4.53097 3.12243 4.58018 3.13278 4.62997 3.13321C4.67977 3.13364 4.72915 3.12415 4.77523 3.1053C4.82132 3.08644 4.86319 3.0586 4.8984 3.02339C4.93361 2.98818 4.96145 2.94631 4.98031 2.90022C4.99916 2.85414 5.00865 2.80476 5.00822 2.75496C5.00779 2.70517 4.99744 2.65597 4.97779 2.61021C4.95813 2.56446 4.92957 2.52308 4.89375 2.48849Z" fill="#BAC0E2"/>
<path d="M9.13649 3.01875L9.66679 2.48841C9.73582 2.41782 9.77422 2.32286 9.77367 2.22413C9.77311 2.1254 9.73365 2.03087 9.66384 1.96106C9.59403 1.89125 9.4995 1.85179 9.40077 1.85123C9.30204 1.85068 9.20708 1.88908 9.13649 1.95811L8.60624 2.4885C8.53793 2.55923 8.50014 2.65395 8.50099 2.75228C8.50185 2.8506 8.54128 2.94465 8.61081 3.01418C8.68034 3.08371 8.77439 3.12315 8.87272 3.124C8.97104 3.12486 9.06577 3.08706 9.13649 3.01875Z" fill="#BAC0E2"/>
<path d="M9.13649 7.7918C9.20708 7.86082 9.30204 7.89923 9.40077 7.89868C9.4995 7.89812 9.59403 7.85866 9.66384 7.78885C9.73365 7.71903 9.77312 7.62451 9.77367 7.52578C9.77422 7.42705 9.73582 7.33209 9.66679 7.2615L9.13649 6.73125C9.1019 6.69544 9.06052 6.66687 9.01477 6.64721C8.96902 6.62756 8.91981 6.61721 8.87002 6.61678C8.82023 6.61635 8.77085 6.62584 8.72476 6.64469C8.67867 6.66355 8.63681 6.69139 8.6016 6.7266C8.56639 6.76181 8.53854 6.80368 8.51969 6.84977C8.50083 6.89585 8.49134 6.94523 8.49177 6.99503C8.49221 7.04482 8.50255 7.09403 8.52221 7.13978C8.54186 7.18553 8.57043 7.22691 8.60624 7.2615L9.13649 7.7918Z" fill="#BAC0E2"/>
<path d="M3.83319 7.2615C3.79772 7.29618 3.76949 7.33755 3.75013 7.38321C3.73076 7.42887 3.72065 7.47792 3.72037 7.52752C3.7201 7.57712 3.72966 7.62628 3.74851 7.67215C3.76736 7.71803 3.79513 7.75971 3.8302 7.79478C3.86527 7.82985 3.90695 7.85762 3.95283 7.87647C3.99871 7.89532 4.04787 7.90489 4.09747 7.90461C4.14706 7.90433 4.19611 7.89422 4.24178 7.87486C4.28744 7.85549 4.32881 7.82726 4.36348 7.7918L4.89373 7.2615C4.92955 7.22691 4.95812 7.18553 4.97777 7.13978C4.99742 7.09403 5.00777 7.04482 5.0082 6.99503C5.00863 6.94523 4.99915 6.89585 4.98029 6.84977C4.96144 6.80368 4.93359 6.76181 4.89838 6.7266C4.86317 6.69139 4.8213 6.66355 4.77522 6.64469C4.72913 6.62584 4.67975 6.61635 4.62996 6.61678C4.58017 6.61721 4.53096 6.62756 4.48521 6.64721C4.43945 6.66687 4.39808 6.69544 4.36348 6.73125L3.83319 7.2615Z" fill="#BAC0E2"/>
<path d="M5.625 12.75C5.72442 12.7501 5.81974 12.7897 5.89004 12.86C5.96035 12.9303 5.99989 13.0256 6 13.125C6 13.2245 6.03951 13.3198 6.10984 13.3902C6.18016 13.4605 6.27555 13.5 6.375 13.5C6.47446 13.5 6.56984 13.4605 6.64017 13.3902C6.71049 13.3198 6.75 13.2245 6.75 13.125C6.75 13.0255 6.78951 12.9302 6.85984 12.8598C6.93016 12.7895 7.02555 12.75 7.125 12.75C7.22446 12.75 7.31984 12.7895 7.39017 12.8598C7.46049 12.9302 7.5 13.0255 7.5 13.125C7.5 13.2245 7.53951 13.3198 7.60984 13.3902C7.68016 13.4605 7.77555 13.5 7.875 13.5C7.97446 13.5 8.06984 13.4605 8.14017 13.3902C8.21049 13.3198 8.25 13.2245 8.25 13.125C8.25012 12.9078 8.18731 12.6952 8.06917 12.5129C7.95103 12.3306 7.78263 12.1864 7.5843 12.0978C7.38598 12.0092 7.16624 11.9799 6.95163 12.0135C6.73703 12.0471 6.53675 12.1422 6.375 12.2871C6.21326 12.1422 6.01298 12.0471 5.79837 12.0135C5.58377 11.9799 5.36402 12.0092 5.1657 12.0978C4.96738 12.1864 4.79897 12.3306 4.68083 12.5129C4.5627 12.6952 4.49989 12.9078 4.5 13.125C4.5 13.2245 4.53951 13.3198 4.60984 13.3902C4.68016 13.4605 4.77554 13.5 4.875 13.5C4.97446 13.5 5.06984 13.4605 5.14017 13.3902C5.21049 13.3198 5.25 13.2245 5.25 13.125C5.25011 13.0256 5.28966 12.9303 5.35996 12.86C5.43026 12.7897 5.52558 12.7501 5.625 12.75Z" fill="#BAC0E2"/>
<path d="M1.5 15.375C1.5 15.4745 1.53951 15.5698 1.60984 15.6402C1.68016 15.7105 1.77554 15.75 1.875 15.75C1.97446 15.75 2.06984 15.7105 2.14017 15.6402C2.21049 15.5698 2.25 15.4745 2.25 15.375C2.25 15.2755 2.28951 15.1802 2.35984 15.1098C2.43016 15.0395 2.52554 15 2.625 15C2.72446 15 2.81984 15.0395 2.89017 15.1098C2.96049 15.1802 3 15.2755 3 15.375C3 15.4745 3.03951 15.5698 3.10984 15.6402C3.18016 15.7105 3.27554 15.75 3.375 15.75C3.47446 15.75 3.56984 15.7105 3.64017 15.6402C3.71049 15.5698 3.75 15.4745 3.75 15.375C3.75 15.2755 3.78951 15.1802 3.85984 15.1098C3.93016 15.0395 4.02554 15 4.125 15C4.22446 15 4.31984 15.0395 4.39017 15.1098C4.46049 15.1802 4.5 15.2755 4.5 15.375C4.5 15.4745 4.53951 15.5698 4.60984 15.6402C4.68016 15.7105 4.77554 15.75 4.875 15.75C4.97446 15.75 5.06984 15.7105 5.14017 15.6402C5.21049 15.5698 5.25 15.4745 5.25 15.375C5.25011 15.1578 5.1873 14.9452 5.06917 14.7629C4.95103 14.5806 4.78262 14.4364 4.5843 14.3478C4.38598 14.2592 4.16624 14.2299 3.95163 14.2635C3.73702 14.2971 3.53674 14.3922 3.375 14.5372C3.21326 14.3922 3.01298 14.2971 2.79837 14.2635C2.58376 14.2299 2.36402 14.2592 2.1657 14.3478C1.96738 14.4364 1.79897 14.5806 1.68083 14.7629C1.5627 14.9452 1.49989 15.1578 1.5 15.375Z" fill="#BAC0E2"/>
</svg>
