<svg width="24" height="24" viewBox="0 0 24 24" fill="none" xmlns="http://www.w3.org/2000/svg">
<path d="M23.5794 11.9907L22.937 11.5597L22.449 10.2116C22.364 9.97676 22.1481 9.81447 21.8989 9.79812L15.125 9.35387L13.1207 7.9473C12.1075 7.23625 10.8356 6.99227 9.63124 7.278L8.15173 7.62906C6.56621 8.00521 5.04312 8.61062 3.63404 9.41713C3.61436 9.41524 3.59449 9.41411 3.5743 9.41411H1.88546L1.31489 8.84353C1.06934 8.59799 0.671184 8.59799 0.425573 8.84353C0.180026 9.08908 0.180026 9.48724 0.425573 9.73285L1.18032 10.4876C1.29823 10.6055 1.45819 10.6718 1.62495 10.6718H1.74556C1.37833 10.9528 1.02206 11.2488 0.678415 11.5598C0.546681 11.679 0.471476 11.8483 0.471476 12.026V12.5455L0.0653954 13.3652C0.0223854 13.452 0 13.5475 0 13.6444C0 14.4245 0.63465 15.0591 1.41474 15.0591H3.69465C3.97196 16.0832 4.90887 16.8389 6.0194 16.8389C7.12993 16.8389 8.0669 16.0832 8.34414 15.0591H16.1123C16.3896 16.0832 17.3265 16.8389 18.437 16.8389C19.5476 16.8389 20.4846 16.0832 20.7618 15.0591H22.3234C22.9543 15.0591 23.5143 14.6349 23.6853 14.0275L23.9642 13.036C24.0756 12.64 23.921 12.2199 23.5794 11.9907ZM22.4747 13.6869C22.4557 13.7544 22.3935 13.8015 22.3234 13.8015H20.7619C20.4846 12.7775 19.5476 12.0218 18.4371 12.0218C17.3266 12.0218 16.3896 12.7775 16.1124 13.8015H8.34414C8.06684 12.7775 7.12993 12.0218 6.0194 12.0218C4.90887 12.0218 3.97189 12.7775 3.69465 13.8015H1.41474C1.36155 13.8015 1.31439 13.7749 1.28596 13.7344L1.66381 12.9719C1.70682 12.8851 1.72921 12.7895 1.72921 12.6927V12.3083C3.64768 10.6335 5.96281 9.44083 8.44199 8.85271L9.92149 8.50165C10.7765 8.2988 11.6791 8.47204 12.3983 8.97671L14.5467 10.4845C14.641 10.5507 14.7518 10.5897 14.8668 10.5973L21.4063 11.0262L21.8245 12.1813C21.87 12.307 21.9544 12.415 22.0654 12.4895L22.693 12.9106L22.4747 13.6869ZM19.5881 14.4303C19.5881 15.065 19.0718 15.5813 18.4371 15.5813C17.8025 15.5813 17.2862 15.065 17.2862 14.4303C17.2862 13.7957 17.8025 13.2794 18.4371 13.2794C19.0718 13.2794 19.5881 13.7957 19.5881 14.4303ZM7.17036 14.4303C7.17036 15.065 6.65405 15.5813 6.0194 15.5813C5.38475 15.5813 4.86844 15.065 4.86844 14.4303C4.86844 13.7957 5.38475 13.2794 6.0194 13.2794C6.65405 13.2794 7.17036 13.7957 7.17036 14.4303Z" fill="#BAC0E2"/>
</svg>
