<svg width="24" height="24" viewBox="0 0 24 24" fill="none" xmlns="http://www.w3.org/2000/svg">
<path d="M17.25 5.25H14.25C14.1505 5.25 14.0552 5.28951 13.9848 5.35984C13.9145 5.43016 13.875 5.52554 13.875 5.625C13.875 5.72446 13.9145 5.81984 13.9848 5.89016C14.0552 5.96049 14.1505 6 14.25 6H17.25C17.3495 6 17.4448 5.96049 17.5152 5.89016C17.5855 5.81984 17.625 5.72446 17.625 5.625C17.625 5.52554 17.5855 5.43016 17.5152 5.35984C17.4448 5.28951 17.3495 5.25 17.25 5.25Z" fill="white"/>
<path d="M15.75 15.75H14.25C14.1505 15.75 14.0552 15.7895 13.9848 15.8598C13.9145 15.9302 13.875 16.0255 13.875 16.125C13.875 16.2245 13.9145 16.3198 13.9848 16.3902C14.0552 16.4605 14.1505 16.5 14.25 16.5H15.75C15.8495 16.5 15.9448 16.4605 16.0152 16.3902C16.0855 16.3198 16.125 16.2245 16.125 16.125C16.125 16.0255 16.0855 15.9302 16.0152 15.8598C15.9448 15.7895 15.8495 15.75 15.75 15.75Z" fill="white"/>
<path d="M10.875 4.5H3.75001C3.70077 4.5 3.652 4.5097 3.60651 4.52854C3.56101 4.54738 3.51967 4.57501 3.48484 4.60983L1.98484 6.10983C1.95002 6.14465 1.92239 6.18599 1.90355 6.23149C1.8847 6.27699 1.875 6.32575 1.875 6.375C1.875 6.42425 1.8847 6.47301 1.90355 6.51851C1.92239 6.56401 1.95002 6.60535 1.98484 6.64017L3.48484 8.14017C3.51967 8.17499 3.56101 8.20261 3.60651 8.22146C3.652 8.2403 3.70077 8.25 3.75001 8.25H10.875V9.75H5.25002C5.20077 9.75 5.152 9.7597 5.10651 9.77854C5.06101 9.79738 5.01967 9.825 4.98484 9.85983L3.48484 11.3598C3.45002 11.3946 3.42239 11.436 3.40355 11.4815C3.3847 11.527 3.375 11.5758 3.375 11.625C3.375 11.6742 3.3847 11.723 3.40355 11.7685C3.42239 11.814 3.45002 11.8553 3.48484 11.8902L4.98484 13.3902C5.01967 13.425 5.06101 13.4526 5.10651 13.4715C5.152 13.4903 5.20077 13.5 5.25002 13.5H10.875V22.875C10.875 22.9745 10.9145 23.0698 10.9849 23.1402C11.0552 23.2105 11.1506 23.25 11.25 23.25H12.75C12.8495 23.25 12.9449 23.2105 13.0152 23.1402C13.0855 23.0698 13.125 22.9745 13.125 22.875V18H17.25C17.2993 18 17.348 17.9903 17.3935 17.9715C17.439 17.9526 17.4804 17.925 17.5152 17.8902L19.0152 16.3902C19.05 16.3553 19.0776 16.314 19.0965 16.2685C19.1153 16.223 19.125 16.1742 19.125 16.125C19.125 16.0758 19.1153 16.027 19.0965 15.9815C19.0776 15.936 19.05 15.8946 19.0152 15.8598L17.5152 14.3598C17.4804 14.325 17.439 14.2974 17.3935 14.2785C17.348 14.2597 17.2993 14.25 17.25 14.25H13.125V12.75H20.25C20.2993 12.75 20.348 12.7403 20.3935 12.7215C20.439 12.7026 20.4804 12.675 20.5152 12.6402L22.0152 11.1402C22.05 11.1053 22.0776 11.064 22.0965 11.0185C22.1153 10.973 22.125 10.9242 22.125 10.875C22.125 10.8258 22.1153 10.777 22.0965 10.7315C22.0776 10.686 22.05 10.6446 22.0152 10.6098L20.5152 9.10983C20.4804 9.07501 20.439 9.04738 20.3935 9.02854C20.348 9.0097 20.2993 9 20.25 9H13.125V7.5H18.75C18.7993 7.5 18.848 7.4903 18.8935 7.47146C18.939 7.45261 18.9804 7.42499 19.0152 7.39017L20.5152 5.89017C20.55 5.85535 20.5776 5.81401 20.5965 5.76851C20.6153 5.72301 20.625 5.67425 20.625 5.625C20.625 5.57575 20.6153 5.52699 20.5965 5.48149C20.5776 5.43599 20.55 5.39465 20.5152 5.35983L19.0152 3.85983C18.9804 3.82501 18.939 3.79738 18.8935 3.77854C18.848 3.7597 18.7993 3.75 18.75 3.75H13.125V2.625C13.1251 2.57572 13.1154 2.52691 13.0965 2.48138C13.0777 2.43586 13.05 2.39451 13.015 2.35973C13.097 2.18825 13.1342 1.99879 13.1231 1.80904C13.112 1.6193 13.0531 1.43546 12.9517 1.27467C12.8503 1.11389 12.7099 0.981405 12.5435 0.88959C12.3771 0.797774 12.1901 0.749619 12 0.749619C11.81 0.749619 11.623 0.797774 11.4566 0.88959C11.2901 0.981405 11.1497 1.11389 11.0483 1.27467C10.947 1.43546 10.888 1.6193 10.8769 1.80904C10.8659 1.99879 10.903 2.18825 10.985 2.35973C10.9501 2.39451 10.9224 2.43586 10.9035 2.48138C10.8846 2.52691 10.875 2.57572 10.875 2.625V4.5ZM10.875 12.75H5.40531L4.28031 11.625L5.40531 10.5H10.875V12.75ZM10.875 7.5H3.90531L2.78031 6.375L3.90531 5.25H10.875V7.5ZM13.125 4.5H18.5947L19.7197 5.625L18.5947 6.75H13.125V4.5ZM13.125 9.75H20.0947L21.2197 10.875L20.0947 12H13.125V9.75ZM13.125 15H17.0947L18.2197 16.125L17.0947 17.25H13.125V15ZM12 1.5C12.0742 1.5 12.1467 1.52199 12.2084 1.5632C12.27 1.6044 12.3181 1.66297 12.3465 1.73149C12.3749 1.80002 12.3823 1.87542 12.3678 1.94816C12.3533 2.0209 12.3176 2.08772 12.2652 2.14016C12.2127 2.19261 12.1459 2.22832 12.0732 2.24279C12.0004 2.25726 11.925 2.24984 11.8565 2.22145C11.788 2.19307 11.7294 2.14501 11.6882 2.08334C11.647 2.02167 11.625 1.94917 11.625 1.875C11.6251 1.77558 11.6647 1.68026 11.735 1.60996C11.8053 1.53966 11.9006 1.50011 12 1.5ZM11.625 3H12.375V22.5H11.625V3Z" fill="white"/>
<path d="M18.75 10.5H14.25C14.1505 10.5 14.0552 10.5395 13.9848 10.6098C13.9145 10.6802 13.875 10.7755 13.875 10.875C13.875 10.9745 13.9145 11.0698 13.9848 11.1402C14.0552 11.2105 14.1505 11.25 14.25 11.25H18.75C18.8495 11.25 18.9448 11.2105 19.0152 11.1402C19.0855 11.0698 19.125 10.9745 19.125 10.875C19.125 10.7755 19.0855 10.6802 19.0152 10.6098C18.9448 10.5395 18.8495 10.5 18.75 10.5Z" fill="white"/>
<path d="M5.25 6.75H9.75C9.84946 6.75 9.94484 6.71049 10.0152 6.64017C10.0855 6.56984 10.125 6.47446 10.125 6.375C10.125 6.27554 10.0855 6.18016 10.0152 6.10983C9.94484 6.03951 9.84946 6 9.75 6H5.25C5.15054 6 5.05516 6.03951 4.98484 6.10983C4.91451 6.18016 4.875 6.27554 4.875 6.375C4.875 6.47446 4.91451 6.56984 4.98484 6.64017C5.05516 6.71049 5.15054 6.75 5.25 6.75Z" fill="white"/>
<path d="M6.75 12H9.75C9.84946 12 9.94484 11.9605 10.0152 11.8902C10.0855 11.8198 10.125 11.7245 10.125 11.625C10.125 11.5255 10.0855 11.4302 10.0152 11.3598C9.94484 11.2895 9.84946 11.25 9.75 11.25H6.75C6.65054 11.25 6.55516 11.2895 6.48483 11.3598C6.41451 11.4302 6.375 11.5255 6.375 11.625C6.375 11.7245 6.41451 11.8198 6.48483 11.8902C6.55516 11.9605 6.65054 12 6.75 12Z" fill="white"/>
</svg>
