<svg width="173" height="31" viewBox="0 0 173 31" fill="none" xmlns="http://www.w3.org/2000/svg">
<path d="M6.948 13.4H1.494V26H4.41V22.526H6.948C10.314 22.526 12.42 20.78 12.42 17.972C12.42 15.146 10.314 13.4 6.948 13.4ZM6.786 20.15H4.41V15.776H6.786C8.568 15.776 9.468 16.586 9.468 17.972C9.468 19.34 8.568 20.15 6.786 20.15ZM17.3998 23.66V20.744H23.2498V18.476H17.3998V15.74H24.0238V13.4H14.5018V26H24.2578V23.66H17.3998ZM30.718 26.216C34.318 26.216 36.064 24.416 36.064 22.31C36.064 17.684 28.738 19.286 28.738 16.964C28.738 16.172 29.404 15.524 31.132 15.524C32.248 15.524 33.454 15.848 34.624 16.514L35.524 14.3C34.354 13.562 32.734 13.184 31.15 13.184C27.568 13.184 25.84 14.966 25.84 17.108C25.84 21.788 33.166 20.168 33.166 22.526C33.166 23.3 32.464 23.876 30.736 23.876C29.224 23.876 27.64 23.336 26.578 22.562L25.588 24.758C26.704 25.622 28.72 26.216 30.718 26.216ZM47.4705 26H50.5305L44.8965 13.4H42.0165L36.4005 26H39.3885L40.5045 23.3H46.3545L47.4705 26ZM41.4405 21.086L43.4385 16.262L45.4365 21.086H41.4405ZM60.5137 13.4V21.05L54.2498 13.4H51.8378V26H54.7178V18.35L60.9998 26H63.3938V13.4H60.5137Z" fill="#131D55"/>
<path d="M103.104 26H106.02V15.776H110.052V13.4H99.072V15.776H103.104V26ZM122.781 26L119.955 21.95C121.593 21.248 122.547 19.862 122.547 17.972C122.547 15.146 120.441 13.4 117.075 13.4H111.621V26H114.537V22.49H117.075H117.219L119.649 26H122.781ZM119.595 17.972C119.595 19.34 118.695 20.168 116.913 20.168H114.537V15.776H116.913C118.695 15.776 119.595 16.586 119.595 17.972ZM134.271 26H137.331L131.697 13.4H128.817L123.201 26H126.189L127.305 23.3H133.155L134.271 26ZM128.241 21.086L130.239 16.262L132.237 21.086H128.241ZM147.169 13.4L143.281 22.4L139.447 13.4H136.297L141.733 26H144.613L150.067 13.4H147.169ZM154.017 23.66V20.744H159.867V18.476H154.017V15.74H160.641V13.4H151.119V26H160.875V23.66H154.017ZM163.195 26H172.429V23.624H166.111V13.4H163.195V26Z" fill="#131D55"/>
<path d="M88.4697 26H74.1279C100.5 17 54.1092 13.9688 78.4603 9.75C60 14.5 106 13 88.4697 26Z" fill="#131D55"/>
<g clip-path="url(#clip0)">
<path fill-rule="evenodd" clip-rule="evenodd" d="M84.4849 12.8359C84.4849 12.8359 89.0489 9.09172 89.0489 5.04889C89.0489 2.26046 86.7885 0 84.0001 0C81.2116 0 78.9512 2.26046 78.9511 5.04889C78.9511 9.09172 83.5151 12.8359 83.5151 12.8359C83.7818 13.0547 84.2183 13.0547 84.4849 12.8359ZM81.46 5.04897C81.46 6.44957 82.5994 7.58908 84.0001 7.58908C85.4007 7.58908 86.5402 6.44952 86.5402 5.04892C86.5402 3.64832 85.4007 2.50881 84.0001 2.50881C82.5995 2.50881 81.46 3.64837 81.46 5.04897Z" fill="#EE3840"/>
</g>
<defs>
<clipPath id="clip0">
<rect width="13" height="13" fill="white" transform="translate(77.5)"/>
</clipPath>
</defs>
</svg>
