<svg width="109" height="132" viewBox="0 0 109 132" fill="none" xmlns="http://www.w3.org/2000/svg">
<path d="M88.0235 132H15.2115C149.101 86.3077 -86.4219 70.9183 37.2067 49.5C-56.5149 73.6154 177.024 66 88.0235 132Z" fill="#131D55"/>
<g clip-path="url(#clip0)">
<path fill-rule="evenodd" clip-rule="evenodd" d="M67.7933 65.167C67.7933 65.167 90.9644 46.1579 90.9644 25.6328C90.9644 11.4762 79.4881 0 65.3316 0C51.1751 0 39.6989 11.4762 39.6986 25.6328C39.6986 46.1579 62.8697 65.167 62.8697 65.167C64.2236 66.2778 66.4394 66.2778 67.7933 65.167ZM52.4357 25.6333C52.4357 32.744 58.2207 38.5292 65.3317 38.5292C72.4427 38.5292 78.2276 32.7438 78.2276 25.633C78.2276 18.5223 72.4424 12.7371 65.3317 12.7371C58.2209 12.7371 52.4357 18.5225 52.4357 25.6333Z" fill="#EE3840"/>
</g>
<defs>
<clipPath id="clip0">
<rect width="66" height="66" fill="white" transform="translate(32.3313)"/>
</clipPath>
</defs>
</svg>
