<svg width="66" height="66" viewBox="0 0 66 66" fill="none" xmlns="http://www.w3.org/2000/svg">
<g clip-path="url(#clip0)">
<path fill-rule="evenodd" clip-rule="evenodd" d="M35.462 65.167C35.462 65.167 58.633 46.1579 58.633 25.6328C58.633 11.4762 47.1568 0 33.0003 0C18.8437 0 7.36758 11.4762 7.36732 25.6328C7.36732 46.1579 30.5384 65.167 30.5384 65.167C31.8923 66.2778 34.1081 66.2778 35.462 65.167ZM20.1044 25.6333C20.1044 32.744 25.8893 38.5292 33.0003 38.5292C40.1113 38.5292 45.8963 32.7438 45.8963 25.633C45.8963 18.5223 40.1111 12.7371 33.0003 12.7371C25.8896 12.7371 20.1044 18.5225 20.1044 25.6333Z" fill="#EE3840"/>
</g>
<defs>
<clipPath id="clip0">
<rect width="66" height="66" fill="white"/>
</clipPath>
</defs>
</svg>
